<?xml version="1.0" encoding="UTF-8"?>
<svg xmlns="http://www.w3.org/2000/svg" viewBox="0 0 850 550" width="85mm" height="55mm">
  <rect width="850" height="550" fill="#ffffff"/>

  <!-- WiFi icon -->
  
    <g transform="translate(115,130)">
      <path d="M -42.5 -7.5 A 45.0 45.0 0 0 1 42.5 -7.5"
            stroke="#000000" stroke-width="9.0" fill="none" stroke-linecap="round"/>
      <path d="M -27.500000000000004 6.0 A 30.0 30.0 0 0 1 27.500000000000004 6.0"
            stroke="#000000" stroke-width="9.0" fill="none" stroke-linecap="round"/>
      <path d="M -12.5 20.0 A 15.0 15.0 0 0 1 12.5 20.0"
            stroke="#000000" stroke-width="9.0" fill="none" stroke-linecap="round"/>
      <circle cx="0" cy="31.0" r="5.5" fill="#000000"/>
    </g>
    

  <text x="60" y="240" text-anchor="start"
        font-family="Helvetica, Arial, sans-serif"
        font-size="80" font-weight="900" fill="#000000"
        letter-spacing="-3">FREE</text>
  <text x="60" y="325" text-anchor="start"
        font-family="Helvetica, Arial, sans-serif"
        font-size="80" font-weight="900" fill="#000000"
        letter-spacing="-3">WIFI</text>

  <text x="60" y="400" text-anchor="start"
        font-family="Helvetica, Arial, sans-serif"
        font-size="26" font-weight="700" fill="#000000">citycompass.pl</text>

  <rect x="423" y="86.5" width="13" height="13" fill="#000000"/>
<rect x="436" y="86.5" width="13" height="13" fill="#000000"/>
<rect x="449" y="86.5" width="13" height="13" fill="#000000"/>
<rect x="462" y="86.5" width="13" height="13" fill="#000000"/>
<rect x="475" y="86.5" width="13" height="13" fill="#000000"/>
<rect x="488" y="86.5" width="13" height="13" fill="#000000"/>
<rect x="501" y="86.5" width="13" height="13" fill="#000000"/>
<rect x="527" y="86.5" width="13" height="13" fill="#000000"/>
<rect x="566" y="86.5" width="13" height="13" fill="#000000"/>
<rect x="579" y="86.5" width="13" height="13" fill="#000000"/>
<rect x="592" y="86.5" width="13" height="13" fill="#000000"/>
<rect x="631" y="86.5" width="13" height="13" fill="#000000"/>
<rect x="644" y="86.5" width="13" height="13" fill="#000000"/>
<rect x="657" y="86.5" width="13" height="13" fill="#000000"/>
<rect x="670" y="86.5" width="13" height="13" fill="#000000"/>
<rect x="709" y="86.5" width="13" height="13" fill="#000000"/>
<rect x="722" y="86.5" width="13" height="13" fill="#000000"/>
<rect x="735" y="86.5" width="13" height="13" fill="#000000"/>
<rect x="748" y="86.5" width="13" height="13" fill="#000000"/>
<rect x="761" y="86.5" width="13" height="13" fill="#000000"/>
<rect x="774" y="86.5" width="13" height="13" fill="#000000"/>
<rect x="787" y="86.5" width="13" height="13" fill="#000000"/>
<rect x="423" y="99.5" width="13" height="13" fill="#000000"/>
<rect x="501" y="99.5" width="13" height="13" fill="#000000"/>
<rect x="566" y="99.5" width="13" height="13" fill="#000000"/>
<rect x="670" y="99.5" width="13" height="13" fill="#000000"/>
<rect x="709" y="99.5" width="13" height="13" fill="#000000"/>
<rect x="787" y="99.5" width="13" height="13" fill="#000000"/>
<rect x="423" y="112.5" width="13" height="13" fill="#000000"/>
<rect x="449" y="112.5" width="13" height="13" fill="#000000"/>
<rect x="462" y="112.5" width="13" height="13" fill="#000000"/>
<rect x="475" y="112.5" width="13" height="13" fill="#000000"/>
<rect x="501" y="112.5" width="13" height="13" fill="#000000"/>
<rect x="527" y="112.5" width="13" height="13" fill="#000000"/>
<rect x="540" y="112.5" width="13" height="13" fill="#000000"/>
<rect x="566" y="112.5" width="13" height="13" fill="#000000"/>
<rect x="579" y="112.5" width="13" height="13" fill="#000000"/>
<rect x="592" y="112.5" width="13" height="13" fill="#000000"/>
<rect x="631" y="112.5" width="13" height="13" fill="#000000"/>
<rect x="657" y="112.5" width="13" height="13" fill="#000000"/>
<rect x="670" y="112.5" width="13" height="13" fill="#000000"/>
<rect x="683" y="112.5" width="13" height="13" fill="#000000"/>
<rect x="709" y="112.5" width="13" height="13" fill="#000000"/>
<rect x="735" y="112.5" width="13" height="13" fill="#000000"/>
<rect x="748" y="112.5" width="13" height="13" fill="#000000"/>
<rect x="761" y="112.5" width="13" height="13" fill="#000000"/>
<rect x="787" y="112.5" width="13" height="13" fill="#000000"/>
<rect x="423" y="125.5" width="13" height="13" fill="#000000"/>
<rect x="449" y="125.5" width="13" height="13" fill="#000000"/>
<rect x="462" y="125.5" width="13" height="13" fill="#000000"/>
<rect x="475" y="125.5" width="13" height="13" fill="#000000"/>
<rect x="501" y="125.5" width="13" height="13" fill="#000000"/>
<rect x="540" y="125.5" width="13" height="13" fill="#000000"/>
<rect x="553" y="125.5" width="13" height="13" fill="#000000"/>
<rect x="579" y="125.5" width="13" height="13" fill="#000000"/>
<rect x="592" y="125.5" width="13" height="13" fill="#000000"/>
<rect x="605" y="125.5" width="13" height="13" fill="#000000"/>
<rect x="618" y="125.5" width="13" height="13" fill="#000000"/>
<rect x="631" y="125.5" width="13" height="13" fill="#000000"/>
<rect x="644" y="125.5" width="13" height="13" fill="#000000"/>
<rect x="670" y="125.5" width="13" height="13" fill="#000000"/>
<rect x="709" y="125.5" width="13" height="13" fill="#000000"/>
<rect x="735" y="125.5" width="13" height="13" fill="#000000"/>
<rect x="748" y="125.5" width="13" height="13" fill="#000000"/>
<rect x="761" y="125.5" width="13" height="13" fill="#000000"/>
<rect x="787" y="125.5" width="13" height="13" fill="#000000"/>
<rect x="423" y="138.5" width="13" height="13" fill="#000000"/>
<rect x="449" y="138.5" width="13" height="13" fill="#000000"/>
<rect x="462" y="138.5" width="13" height="13" fill="#000000"/>
<rect x="475" y="138.5" width="13" height="13" fill="#000000"/>
<rect x="501" y="138.5" width="13" height="13" fill="#000000"/>
<rect x="527" y="138.5" width="13" height="13" fill="#000000"/>
<rect x="553" y="138.5" width="13" height="13" fill="#000000"/>
<rect x="566" y="138.5" width="13" height="13" fill="#000000"/>
<rect x="592" y="138.5" width="13" height="13" fill="#000000"/>
<rect x="670" y="138.5" width="13" height="13" fill="#000000"/>
<rect x="683" y="138.5" width="13" height="13" fill="#000000"/>
<rect x="709" y="138.5" width="13" height="13" fill="#000000"/>
<rect x="735" y="138.5" width="13" height="13" fill="#000000"/>
<rect x="748" y="138.5" width="13" height="13" fill="#000000"/>
<rect x="761" y="138.5" width="13" height="13" fill="#000000"/>
<rect x="787" y="138.5" width="13" height="13" fill="#000000"/>
<rect x="423" y="151.5" width="13" height="13" fill="#000000"/>
<rect x="501" y="151.5" width="13" height="13" fill="#000000"/>
<rect x="579" y="151.5" width="13" height="13" fill="#000000"/>
<rect x="592" y="151.5" width="13" height="13" fill="#000000"/>
<rect x="631" y="151.5" width="13" height="13" fill="#000000"/>
<rect x="657" y="151.5" width="13" height="13" fill="#000000"/>
<rect x="683" y="151.5" width="13" height="13" fill="#000000"/>
<rect x="709" y="151.5" width="13" height="13" fill="#000000"/>
<rect x="787" y="151.5" width="13" height="13" fill="#000000"/>
<rect x="423" y="164.5" width="13" height="13" fill="#000000"/>
<rect x="436" y="164.5" width="13" height="13" fill="#000000"/>
<rect x="449" y="164.5" width="13" height="13" fill="#000000"/>
<rect x="462" y="164.5" width="13" height="13" fill="#000000"/>
<rect x="475" y="164.5" width="13" height="13" fill="#000000"/>
<rect x="488" y="164.5" width="13" height="13" fill="#000000"/>
<rect x="501" y="164.5" width="13" height="13" fill="#000000"/>
<rect x="527" y="164.5" width="13" height="13" fill="#000000"/>
<rect x="553" y="164.5" width="13" height="13" fill="#000000"/>
<rect x="579" y="164.5" width="13" height="13" fill="#000000"/>
<rect x="605" y="164.5" width="13" height="13" fill="#000000"/>
<rect x="631" y="164.5" width="13" height="13" fill="#000000"/>
<rect x="657" y="164.5" width="13" height="13" fill="#000000"/>
<rect x="683" y="164.5" width="13" height="13" fill="#000000"/>
<rect x="709" y="164.5" width="13" height="13" fill="#000000"/>
<rect x="722" y="164.5" width="13" height="13" fill="#000000"/>
<rect x="735" y="164.5" width="13" height="13" fill="#000000"/>
<rect x="748" y="164.5" width="13" height="13" fill="#000000"/>
<rect x="761" y="164.5" width="13" height="13" fill="#000000"/>
<rect x="774" y="164.5" width="13" height="13" fill="#000000"/>
<rect x="787" y="164.5" width="13" height="13" fill="#000000"/>
<rect x="527" y="177.5" width="13" height="13" fill="#000000"/>
<rect x="540" y="177.5" width="13" height="13" fill="#000000"/>
<rect x="579" y="177.5" width="13" height="13" fill="#000000"/>
<rect x="605" y="177.5" width="13" height="13" fill="#000000"/>
<rect x="488" y="190.5" width="13" height="13" fill="#000000"/>
<rect x="501" y="190.5" width="13" height="13" fill="#000000"/>
<rect x="540" y="190.5" width="13" height="13" fill="#000000"/>
<rect x="553" y="190.5" width="13" height="13" fill="#000000"/>
<rect x="618" y="190.5" width="13" height="13" fill="#000000"/>
<rect x="657" y="190.5" width="13" height="13" fill="#000000"/>
<rect x="670" y="190.5" width="13" height="13" fill="#000000"/>
<rect x="709" y="190.5" width="13" height="13" fill="#000000"/>
<rect x="735" y="190.5" width="13" height="13" fill="#000000"/>
<rect x="761" y="190.5" width="13" height="13" fill="#000000"/>
<rect x="787" y="190.5" width="13" height="13" fill="#000000"/>
<rect x="436" y="203.5" width="13" height="13" fill="#000000"/>
<rect x="449" y="203.5" width="13" height="13" fill="#000000"/>
<rect x="488" y="203.5" width="13" height="13" fill="#000000"/>
<rect x="527" y="203.5" width="13" height="13" fill="#000000"/>
<rect x="566" y="203.5" width="13" height="13" fill="#000000"/>
<rect x="579" y="203.5" width="13" height="13" fill="#000000"/>
<rect x="592" y="203.5" width="13" height="13" fill="#000000"/>
<rect x="618" y="203.5" width="13" height="13" fill="#000000"/>
<rect x="644" y="203.5" width="13" height="13" fill="#000000"/>
<rect x="683" y="203.5" width="13" height="13" fill="#000000"/>
<rect x="696" y="203.5" width="13" height="13" fill="#000000"/>
<rect x="722" y="203.5" width="13" height="13" fill="#000000"/>
<rect x="735" y="203.5" width="13" height="13" fill="#000000"/>
<rect x="748" y="203.5" width="13" height="13" fill="#000000"/>
<rect x="774" y="203.5" width="13" height="13" fill="#000000"/>
<rect x="423" y="216.5" width="13" height="13" fill="#000000"/>
<rect x="436" y="216.5" width="13" height="13" fill="#000000"/>
<rect x="475" y="216.5" width="13" height="13" fill="#000000"/>
<rect x="501" y="216.5" width="13" height="13" fill="#000000"/>
<rect x="514" y="216.5" width="13" height="13" fill="#000000"/>
<rect x="527" y="216.5" width="13" height="13" fill="#000000"/>
<rect x="566" y="216.5" width="13" height="13" fill="#000000"/>
<rect x="579" y="216.5" width="13" height="13" fill="#000000"/>
<rect x="618" y="216.5" width="13" height="13" fill="#000000"/>
<rect x="644" y="216.5" width="13" height="13" fill="#000000"/>
<rect x="657" y="216.5" width="13" height="13" fill="#000000"/>
<rect x="696" y="216.5" width="13" height="13" fill="#000000"/>
<rect x="709" y="216.5" width="13" height="13" fill="#000000"/>
<rect x="722" y="216.5" width="13" height="13" fill="#000000"/>
<rect x="748" y="216.5" width="13" height="13" fill="#000000"/>
<rect x="761" y="216.5" width="13" height="13" fill="#000000"/>
<rect x="436" y="229.5" width="13" height="13" fill="#000000"/>
<rect x="449" y="229.5" width="13" height="13" fill="#000000"/>
<rect x="475" y="229.5" width="13" height="13" fill="#000000"/>
<rect x="514" y="229.5" width="13" height="13" fill="#000000"/>
<rect x="527" y="229.5" width="13" height="13" fill="#000000"/>
<rect x="566" y="229.5" width="13" height="13" fill="#000000"/>
<rect x="592" y="229.5" width="13" height="13" fill="#000000"/>
<rect x="631" y="229.5" width="13" height="13" fill="#000000"/>
<rect x="657" y="229.5" width="13" height="13" fill="#000000"/>
<rect x="683" y="229.5" width="13" height="13" fill="#000000"/>
<rect x="709" y="229.5" width="13" height="13" fill="#000000"/>
<rect x="735" y="229.5" width="13" height="13" fill="#000000"/>
<rect x="748" y="229.5" width="13" height="13" fill="#000000"/>
<rect x="423" y="242.5" width="13" height="13" fill="#000000"/>
<rect x="436" y="242.5" width="13" height="13" fill="#000000"/>
<rect x="475" y="242.5" width="13" height="13" fill="#000000"/>
<rect x="501" y="242.5" width="13" height="13" fill="#000000"/>
<rect x="553" y="242.5" width="13" height="13" fill="#000000"/>
<rect x="566" y="242.5" width="13" height="13" fill="#000000"/>
<rect x="579" y="242.5" width="13" height="13" fill="#000000"/>
<rect x="605" y="242.5" width="13" height="13" fill="#000000"/>
<rect x="644" y="242.5" width="13" height="13" fill="#000000"/>
<rect x="683" y="242.5" width="13" height="13" fill="#000000"/>
<rect x="696" y="242.5" width="13" height="13" fill="#000000"/>
<rect x="709" y="242.5" width="13" height="13" fill="#000000"/>
<rect x="748" y="242.5" width="13" height="13" fill="#000000"/>
<rect x="774" y="242.5" width="13" height="13" fill="#000000"/>
<rect x="436" y="255.5" width="13" height="13" fill="#000000"/>
<rect x="449" y="255.5" width="13" height="13" fill="#000000"/>
<rect x="462" y="255.5" width="13" height="13" fill="#000000"/>
<rect x="514" y="255.5" width="13" height="13" fill="#000000"/>
<rect x="527" y="255.5" width="13" height="13" fill="#000000"/>
<rect x="553" y="255.5" width="13" height="13" fill="#000000"/>
<rect x="618" y="255.5" width="13" height="13" fill="#000000"/>
<rect x="644" y="255.5" width="13" height="13" fill="#000000"/>
<rect x="657" y="255.5" width="13" height="13" fill="#000000"/>
<rect x="670" y="255.5" width="13" height="13" fill="#000000"/>
<rect x="683" y="255.5" width="13" height="13" fill="#000000"/>
<rect x="709" y="255.5" width="13" height="13" fill="#000000"/>
<rect x="735" y="255.5" width="13" height="13" fill="#000000"/>
<rect x="748" y="255.5" width="13" height="13" fill="#000000"/>
<rect x="787" y="255.5" width="13" height="13" fill="#000000"/>
<rect x="423" y="268.5" width="13" height="13" fill="#000000"/>
<rect x="449" y="268.5" width="13" height="13" fill="#000000"/>
<rect x="488" y="268.5" width="13" height="13" fill="#000000"/>
<rect x="501" y="268.5" width="13" height="13" fill="#000000"/>
<rect x="514" y="268.5" width="13" height="13" fill="#000000"/>
<rect x="540" y="268.5" width="13" height="13" fill="#000000"/>
<rect x="553" y="268.5" width="13" height="13" fill="#000000"/>
<rect x="566" y="268.5" width="13" height="13" fill="#000000"/>
<rect x="579" y="268.5" width="13" height="13" fill="#000000"/>
<rect x="618" y="268.5" width="13" height="13" fill="#000000"/>
<rect x="631" y="268.5" width="13" height="13" fill="#000000"/>
<rect x="683" y="268.5" width="13" height="13" fill="#000000"/>
<rect x="696" y="268.5" width="13" height="13" fill="#000000"/>
<rect x="722" y="268.5" width="13" height="13" fill="#000000"/>
<rect x="423" y="281.5" width="13" height="13" fill="#000000"/>
<rect x="449" y="281.5" width="13" height="13" fill="#000000"/>
<rect x="462" y="281.5" width="13" height="13" fill="#000000"/>
<rect x="488" y="281.5" width="13" height="13" fill="#000000"/>
<rect x="514" y="281.5" width="13" height="13" fill="#000000"/>
<rect x="527" y="281.5" width="13" height="13" fill="#000000"/>
<rect x="540" y="281.5" width="13" height="13" fill="#000000"/>
<rect x="553" y="281.5" width="13" height="13" fill="#000000"/>
<rect x="566" y="281.5" width="13" height="13" fill="#000000"/>
<rect x="579" y="281.5" width="13" height="13" fill="#000000"/>
<rect x="592" y="281.5" width="13" height="13" fill="#000000"/>
<rect x="670" y="281.5" width="13" height="13" fill="#000000"/>
<rect x="683" y="281.5" width="13" height="13" fill="#000000"/>
<rect x="696" y="281.5" width="13" height="13" fill="#000000"/>
<rect x="735" y="281.5" width="13" height="13" fill="#000000"/>
<rect x="748" y="281.5" width="13" height="13" fill="#000000"/>
<rect x="761" y="281.5" width="13" height="13" fill="#000000"/>
<rect x="774" y="281.5" width="13" height="13" fill="#000000"/>
<rect x="475" y="294.5" width="13" height="13" fill="#000000"/>
<rect x="488" y="294.5" width="13" height="13" fill="#000000"/>
<rect x="501" y="294.5" width="13" height="13" fill="#000000"/>
<rect x="527" y="294.5" width="13" height="13" fill="#000000"/>
<rect x="553" y="294.5" width="13" height="13" fill="#000000"/>
<rect x="592" y="294.5" width="13" height="13" fill="#000000"/>
<rect x="618" y="294.5" width="13" height="13" fill="#000000"/>
<rect x="657" y="294.5" width="13" height="13" fill="#000000"/>
<rect x="696" y="294.5" width="13" height="13" fill="#000000"/>
<rect x="722" y="294.5" width="13" height="13" fill="#000000"/>
<rect x="748" y="294.5" width="13" height="13" fill="#000000"/>
<rect x="761" y="294.5" width="13" height="13" fill="#000000"/>
<rect x="774" y="294.5" width="13" height="13" fill="#000000"/>
<rect x="423" y="307.5" width="13" height="13" fill="#000000"/>
<rect x="462" y="307.5" width="13" height="13" fill="#000000"/>
<rect x="514" y="307.5" width="13" height="13" fill="#000000"/>
<rect x="527" y="307.5" width="13" height="13" fill="#000000"/>
<rect x="553" y="307.5" width="13" height="13" fill="#000000"/>
<rect x="566" y="307.5" width="13" height="13" fill="#000000"/>
<rect x="592" y="307.5" width="13" height="13" fill="#000000"/>
<rect x="657" y="307.5" width="13" height="13" fill="#000000"/>
<rect x="670" y="307.5" width="13" height="13" fill="#000000"/>
<rect x="683" y="307.5" width="13" height="13" fill="#000000"/>
<rect x="709" y="307.5" width="13" height="13" fill="#000000"/>
<rect x="722" y="307.5" width="13" height="13" fill="#000000"/>
<rect x="735" y="307.5" width="13" height="13" fill="#000000"/>
<rect x="748" y="307.5" width="13" height="13" fill="#000000"/>
<rect x="761" y="307.5" width="13" height="13" fill="#000000"/>
<rect x="787" y="307.5" width="13" height="13" fill="#000000"/>
<rect x="423" y="320.5" width="13" height="13" fill="#000000"/>
<rect x="436" y="320.5" width="13" height="13" fill="#000000"/>
<rect x="449" y="320.5" width="13" height="13" fill="#000000"/>
<rect x="462" y="320.5" width="13" height="13" fill="#000000"/>
<rect x="488" y="320.5" width="13" height="13" fill="#000000"/>
<rect x="501" y="320.5" width="13" height="13" fill="#000000"/>
<rect x="527" y="320.5" width="13" height="13" fill="#000000"/>
<rect x="540" y="320.5" width="13" height="13" fill="#000000"/>
<rect x="553" y="320.5" width="13" height="13" fill="#000000"/>
<rect x="579" y="320.5" width="13" height="13" fill="#000000"/>
<rect x="592" y="320.5" width="13" height="13" fill="#000000"/>
<rect x="631" y="320.5" width="13" height="13" fill="#000000"/>
<rect x="644" y="320.5" width="13" height="13" fill="#000000"/>
<rect x="657" y="320.5" width="13" height="13" fill="#000000"/>
<rect x="670" y="320.5" width="13" height="13" fill="#000000"/>
<rect x="683" y="320.5" width="13" height="13" fill="#000000"/>
<rect x="735" y="320.5" width="13" height="13" fill="#000000"/>
<rect x="761" y="320.5" width="13" height="13" fill="#000000"/>
<rect x="787" y="320.5" width="13" height="13" fill="#000000"/>
<rect x="423" y="333.5" width="13" height="13" fill="#000000"/>
<rect x="449" y="333.5" width="13" height="13" fill="#000000"/>
<rect x="462" y="333.5" width="13" height="13" fill="#000000"/>
<rect x="475" y="333.5" width="13" height="13" fill="#000000"/>
<rect x="540" y="333.5" width="13" height="13" fill="#000000"/>
<rect x="566" y="333.5" width="13" height="13" fill="#000000"/>
<rect x="618" y="333.5" width="13" height="13" fill="#000000"/>
<rect x="657" y="333.5" width="13" height="13" fill="#000000"/>
<rect x="696" y="333.5" width="13" height="13" fill="#000000"/>
<rect x="709" y="333.5" width="13" height="13" fill="#000000"/>
<rect x="735" y="333.5" width="13" height="13" fill="#000000"/>
<rect x="748" y="333.5" width="13" height="13" fill="#000000"/>
<rect x="787" y="333.5" width="13" height="13" fill="#000000"/>
<rect x="423" y="346.5" width="13" height="13" fill="#000000"/>
<rect x="462" y="346.5" width="13" height="13" fill="#000000"/>
<rect x="501" y="346.5" width="13" height="13" fill="#000000"/>
<rect x="514" y="346.5" width="13" height="13" fill="#000000"/>
<rect x="553" y="346.5" width="13" height="13" fill="#000000"/>
<rect x="566" y="346.5" width="13" height="13" fill="#000000"/>
<rect x="579" y="346.5" width="13" height="13" fill="#000000"/>
<rect x="592" y="346.5" width="13" height="13" fill="#000000"/>
<rect x="631" y="346.5" width="13" height="13" fill="#000000"/>
<rect x="657" y="346.5" width="13" height="13" fill="#000000"/>
<rect x="683" y="346.5" width="13" height="13" fill="#000000"/>
<rect x="696" y="346.5" width="13" height="13" fill="#000000"/>
<rect x="709" y="346.5" width="13" height="13" fill="#000000"/>
<rect x="722" y="346.5" width="13" height="13" fill="#000000"/>
<rect x="735" y="346.5" width="13" height="13" fill="#000000"/>
<rect x="748" y="346.5" width="13" height="13" fill="#000000"/>
<rect x="761" y="346.5" width="13" height="13" fill="#000000"/>
<rect x="527" y="359.5" width="13" height="13" fill="#000000"/>
<rect x="553" y="359.5" width="13" height="13" fill="#000000"/>
<rect x="579" y="359.5" width="13" height="13" fill="#000000"/>
<rect x="618" y="359.5" width="13" height="13" fill="#000000"/>
<rect x="644" y="359.5" width="13" height="13" fill="#000000"/>
<rect x="683" y="359.5" width="13" height="13" fill="#000000"/>
<rect x="735" y="359.5" width="13" height="13" fill="#000000"/>
<rect x="748" y="359.5" width="13" height="13" fill="#000000"/>
<rect x="761" y="359.5" width="13" height="13" fill="#000000"/>
<rect x="423" y="372.5" width="13" height="13" fill="#000000"/>
<rect x="436" y="372.5" width="13" height="13" fill="#000000"/>
<rect x="449" y="372.5" width="13" height="13" fill="#000000"/>
<rect x="462" y="372.5" width="13" height="13" fill="#000000"/>
<rect x="475" y="372.5" width="13" height="13" fill="#000000"/>
<rect x="488" y="372.5" width="13" height="13" fill="#000000"/>
<rect x="501" y="372.5" width="13" height="13" fill="#000000"/>
<rect x="540" y="372.5" width="13" height="13" fill="#000000"/>
<rect x="553" y="372.5" width="13" height="13" fill="#000000"/>
<rect x="592" y="372.5" width="13" height="13" fill="#000000"/>
<rect x="605" y="372.5" width="13" height="13" fill="#000000"/>
<rect x="618" y="372.5" width="13" height="13" fill="#000000"/>
<rect x="670" y="372.5" width="13" height="13" fill="#000000"/>
<rect x="683" y="372.5" width="13" height="13" fill="#000000"/>
<rect x="709" y="372.5" width="13" height="13" fill="#000000"/>
<rect x="735" y="372.5" width="13" height="13" fill="#000000"/>
<rect x="423" y="385.5" width="13" height="13" fill="#000000"/>
<rect x="501" y="385.5" width="13" height="13" fill="#000000"/>
<rect x="527" y="385.5" width="13" height="13" fill="#000000"/>
<rect x="553" y="385.5" width="13" height="13" fill="#000000"/>
<rect x="644" y="385.5" width="13" height="13" fill="#000000"/>
<rect x="670" y="385.5" width="13" height="13" fill="#000000"/>
<rect x="683" y="385.5" width="13" height="13" fill="#000000"/>
<rect x="735" y="385.5" width="13" height="13" fill="#000000"/>
<rect x="748" y="385.5" width="13" height="13" fill="#000000"/>
<rect x="774" y="385.5" width="13" height="13" fill="#000000"/>
<rect x="423" y="398.5" width="13" height="13" fill="#000000"/>
<rect x="449" y="398.5" width="13" height="13" fill="#000000"/>
<rect x="462" y="398.5" width="13" height="13" fill="#000000"/>
<rect x="475" y="398.5" width="13" height="13" fill="#000000"/>
<rect x="501" y="398.5" width="13" height="13" fill="#000000"/>
<rect x="540" y="398.5" width="13" height="13" fill="#000000"/>
<rect x="553" y="398.5" width="13" height="13" fill="#000000"/>
<rect x="592" y="398.5" width="13" height="13" fill="#000000"/>
<rect x="618" y="398.5" width="13" height="13" fill="#000000"/>
<rect x="631" y="398.5" width="13" height="13" fill="#000000"/>
<rect x="644" y="398.5" width="13" height="13" fill="#000000"/>
<rect x="670" y="398.5" width="13" height="13" fill="#000000"/>
<rect x="683" y="398.5" width="13" height="13" fill="#000000"/>
<rect x="696" y="398.5" width="13" height="13" fill="#000000"/>
<rect x="709" y="398.5" width="13" height="13" fill="#000000"/>
<rect x="722" y="398.5" width="13" height="13" fill="#000000"/>
<rect x="735" y="398.5" width="13" height="13" fill="#000000"/>
<rect x="774" y="398.5" width="13" height="13" fill="#000000"/>
<rect x="423" y="411.5" width="13" height="13" fill="#000000"/>
<rect x="449" y="411.5" width="13" height="13" fill="#000000"/>
<rect x="462" y="411.5" width="13" height="13" fill="#000000"/>
<rect x="475" y="411.5" width="13" height="13" fill="#000000"/>
<rect x="501" y="411.5" width="13" height="13" fill="#000000"/>
<rect x="553" y="411.5" width="13" height="13" fill="#000000"/>
<rect x="566" y="411.5" width="13" height="13" fill="#000000"/>
<rect x="605" y="411.5" width="13" height="13" fill="#000000"/>
<rect x="670" y="411.5" width="13" height="13" fill="#000000"/>
<rect x="683" y="411.5" width="13" height="13" fill="#000000"/>
<rect x="722" y="411.5" width="13" height="13" fill="#000000"/>
<rect x="774" y="411.5" width="13" height="13" fill="#000000"/>
<rect x="423" y="424.5" width="13" height="13" fill="#000000"/>
<rect x="449" y="424.5" width="13" height="13" fill="#000000"/>
<rect x="462" y="424.5" width="13" height="13" fill="#000000"/>
<rect x="475" y="424.5" width="13" height="13" fill="#000000"/>
<rect x="501" y="424.5" width="13" height="13" fill="#000000"/>
<rect x="553" y="424.5" width="13" height="13" fill="#000000"/>
<rect x="579" y="424.5" width="13" height="13" fill="#000000"/>
<rect x="592" y="424.5" width="13" height="13" fill="#000000"/>
<rect x="618" y="424.5" width="13" height="13" fill="#000000"/>
<rect x="631" y="424.5" width="13" height="13" fill="#000000"/>
<rect x="670" y="424.5" width="13" height="13" fill="#000000"/>
<rect x="683" y="424.5" width="13" height="13" fill="#000000"/>
<rect x="696" y="424.5" width="13" height="13" fill="#000000"/>
<rect x="709" y="424.5" width="13" height="13" fill="#000000"/>
<rect x="722" y="424.5" width="13" height="13" fill="#000000"/>
<rect x="735" y="424.5" width="13" height="13" fill="#000000"/>
<rect x="774" y="424.5" width="13" height="13" fill="#000000"/>
<rect x="423" y="437.5" width="13" height="13" fill="#000000"/>
<rect x="501" y="437.5" width="13" height="13" fill="#000000"/>
<rect x="553" y="437.5" width="13" height="13" fill="#000000"/>
<rect x="579" y="437.5" width="13" height="13" fill="#000000"/>
<rect x="644" y="437.5" width="13" height="13" fill="#000000"/>
<rect x="670" y="437.5" width="13" height="13" fill="#000000"/>
<rect x="696" y="437.5" width="13" height="13" fill="#000000"/>
<rect x="735" y="437.5" width="13" height="13" fill="#000000"/>
<rect x="748" y="437.5" width="13" height="13" fill="#000000"/>
<rect x="761" y="437.5" width="13" height="13" fill="#000000"/>
<rect x="787" y="437.5" width="13" height="13" fill="#000000"/>
<rect x="423" y="450.5" width="13" height="13" fill="#000000"/>
<rect x="436" y="450.5" width="13" height="13" fill="#000000"/>
<rect x="449" y="450.5" width="13" height="13" fill="#000000"/>
<rect x="462" y="450.5" width="13" height="13" fill="#000000"/>
<rect x="475" y="450.5" width="13" height="13" fill="#000000"/>
<rect x="488" y="450.5" width="13" height="13" fill="#000000"/>
<rect x="501" y="450.5" width="13" height="13" fill="#000000"/>
<rect x="540" y="450.5" width="13" height="13" fill="#000000"/>
<rect x="566" y="450.5" width="13" height="13" fill="#000000"/>
<rect x="579" y="450.5" width="13" height="13" fill="#000000"/>
<rect x="592" y="450.5" width="13" height="13" fill="#000000"/>
<rect x="605" y="450.5" width="13" height="13" fill="#000000"/>
<rect x="631" y="450.5" width="13" height="13" fill="#000000"/>
<rect x="644" y="450.5" width="13" height="13" fill="#000000"/>
<rect x="657" y="450.5" width="13" height="13" fill="#000000"/>
<rect x="670" y="450.5" width="13" height="13" fill="#000000"/>
<rect x="696" y="450.5" width="13" height="13" fill="#000000"/>
<rect x="709" y="450.5" width="13" height="13" fill="#000000"/>
<rect x="735" y="450.5" width="13" height="13" fill="#000000"/>
<rect x="761" y="450.5" width="13" height="13" fill="#000000"/>
</svg>
