<?xml version="1.0" encoding="UTF-8"?>
<svg xmlns="http://www.w3.org/2000/svg" viewBox="0 0 800 1130" width="105mm" height="148mm">
  <rect width="800" height="1130" fill="#ffffff"/>

  <!-- WiFi icon -->
  
    <g transform="translate(400.0,130)">
      <path d="M -59.5 -10.5 A 63.0 63.0 0 0 1 59.5 -10.5"
            stroke="#000000" stroke-width="12.6" fill="none" stroke-linecap="round"/>
      <path d="M -38.5 8.4 A 42.0 42.0 0 0 1 38.5 8.4"
            stroke="#000000" stroke-width="12.6" fill="none" stroke-linecap="round"/>
      <path d="M -17.5 28.0 A 21.0 21.0 0 0 1 17.5 28.0"
            stroke="#000000" stroke-width="12.6" fill="none" stroke-linecap="round"/>
      <circle cx="0" cy="43.4" r="7.7" fill="#000000"/>
    </g>
    

  <!-- Headline -->
  <text x="400.0" y="320" text-anchor="middle"
        font-family="Helvetica, Arial, sans-serif"
        font-size="100" font-weight="900" fill="#000000"
        letter-spacing="-3">FREE WIFI</text>

  <!-- QR -->
  <rect x="153.5" y="380" width="17" height="17" fill="#000000"/>
<rect x="170.5" y="380" width="17" height="17" fill="#000000"/>
<rect x="187.5" y="380" width="17" height="17" fill="#000000"/>
<rect x="204.5" y="380" width="17" height="17" fill="#000000"/>
<rect x="221.5" y="380" width="17" height="17" fill="#000000"/>
<rect x="238.5" y="380" width="17" height="17" fill="#000000"/>
<rect x="255.5" y="380" width="17" height="17" fill="#000000"/>
<rect x="289.5" y="380" width="17" height="17" fill="#000000"/>
<rect x="340.5" y="380" width="17" height="17" fill="#000000"/>
<rect x="357.5" y="380" width="17" height="17" fill="#000000"/>
<rect x="374.5" y="380" width="17" height="17" fill="#000000"/>
<rect x="425.5" y="380" width="17" height="17" fill="#000000"/>
<rect x="442.5" y="380" width="17" height="17" fill="#000000"/>
<rect x="459.5" y="380" width="17" height="17" fill="#000000"/>
<rect x="476.5" y="380" width="17" height="17" fill="#000000"/>
<rect x="527.5" y="380" width="17" height="17" fill="#000000"/>
<rect x="544.5" y="380" width="17" height="17" fill="#000000"/>
<rect x="561.5" y="380" width="17" height="17" fill="#000000"/>
<rect x="578.5" y="380" width="17" height="17" fill="#000000"/>
<rect x="595.5" y="380" width="17" height="17" fill="#000000"/>
<rect x="612.5" y="380" width="17" height="17" fill="#000000"/>
<rect x="629.5" y="380" width="17" height="17" fill="#000000"/>
<rect x="153.5" y="397" width="17" height="17" fill="#000000"/>
<rect x="255.5" y="397" width="17" height="17" fill="#000000"/>
<rect x="340.5" y="397" width="17" height="17" fill="#000000"/>
<rect x="476.5" y="397" width="17" height="17" fill="#000000"/>
<rect x="527.5" y="397" width="17" height="17" fill="#000000"/>
<rect x="629.5" y="397" width="17" height="17" fill="#000000"/>
<rect x="153.5" y="414" width="17" height="17" fill="#000000"/>
<rect x="187.5" y="414" width="17" height="17" fill="#000000"/>
<rect x="204.5" y="414" width="17" height="17" fill="#000000"/>
<rect x="221.5" y="414" width="17" height="17" fill="#000000"/>
<rect x="255.5" y="414" width="17" height="17" fill="#000000"/>
<rect x="289.5" y="414" width="17" height="17" fill="#000000"/>
<rect x="306.5" y="414" width="17" height="17" fill="#000000"/>
<rect x="340.5" y="414" width="17" height="17" fill="#000000"/>
<rect x="357.5" y="414" width="17" height="17" fill="#000000"/>
<rect x="374.5" y="414" width="17" height="17" fill="#000000"/>
<rect x="425.5" y="414" width="17" height="17" fill="#000000"/>
<rect x="459.5" y="414" width="17" height="17" fill="#000000"/>
<rect x="476.5" y="414" width="17" height="17" fill="#000000"/>
<rect x="493.5" y="414" width="17" height="17" fill="#000000"/>
<rect x="527.5" y="414" width="17" height="17" fill="#000000"/>
<rect x="561.5" y="414" width="17" height="17" fill="#000000"/>
<rect x="578.5" y="414" width="17" height="17" fill="#000000"/>
<rect x="595.5" y="414" width="17" height="17" fill="#000000"/>
<rect x="629.5" y="414" width="17" height="17" fill="#000000"/>
<rect x="153.5" y="431" width="17" height="17" fill="#000000"/>
<rect x="187.5" y="431" width="17" height="17" fill="#000000"/>
<rect x="204.5" y="431" width="17" height="17" fill="#000000"/>
<rect x="221.5" y="431" width="17" height="17" fill="#000000"/>
<rect x="255.5" y="431" width="17" height="17" fill="#000000"/>
<rect x="306.5" y="431" width="17" height="17" fill="#000000"/>
<rect x="323.5" y="431" width="17" height="17" fill="#000000"/>
<rect x="357.5" y="431" width="17" height="17" fill="#000000"/>
<rect x="374.5" y="431" width="17" height="17" fill="#000000"/>
<rect x="391.5" y="431" width="17" height="17" fill="#000000"/>
<rect x="408.5" y="431" width="17" height="17" fill="#000000"/>
<rect x="425.5" y="431" width="17" height="17" fill="#000000"/>
<rect x="442.5" y="431" width="17" height="17" fill="#000000"/>
<rect x="476.5" y="431" width="17" height="17" fill="#000000"/>
<rect x="527.5" y="431" width="17" height="17" fill="#000000"/>
<rect x="561.5" y="431" width="17" height="17" fill="#000000"/>
<rect x="578.5" y="431" width="17" height="17" fill="#000000"/>
<rect x="595.5" y="431" width="17" height="17" fill="#000000"/>
<rect x="629.5" y="431" width="17" height="17" fill="#000000"/>
<rect x="153.5" y="448" width="17" height="17" fill="#000000"/>
<rect x="187.5" y="448" width="17" height="17" fill="#000000"/>
<rect x="204.5" y="448" width="17" height="17" fill="#000000"/>
<rect x="221.5" y="448" width="17" height="17" fill="#000000"/>
<rect x="255.5" y="448" width="17" height="17" fill="#000000"/>
<rect x="289.5" y="448" width="17" height="17" fill="#000000"/>
<rect x="323.5" y="448" width="17" height="17" fill="#000000"/>
<rect x="340.5" y="448" width="17" height="17" fill="#000000"/>
<rect x="374.5" y="448" width="17" height="17" fill="#000000"/>
<rect x="476.5" y="448" width="17" height="17" fill="#000000"/>
<rect x="493.5" y="448" width="17" height="17" fill="#000000"/>
<rect x="527.5" y="448" width="17" height="17" fill="#000000"/>
<rect x="561.5" y="448" width="17" height="17" fill="#000000"/>
<rect x="578.5" y="448" width="17" height="17" fill="#000000"/>
<rect x="595.5" y="448" width="17" height="17" fill="#000000"/>
<rect x="629.5" y="448" width="17" height="17" fill="#000000"/>
<rect x="153.5" y="465" width="17" height="17" fill="#000000"/>
<rect x="255.5" y="465" width="17" height="17" fill="#000000"/>
<rect x="357.5" y="465" width="17" height="17" fill="#000000"/>
<rect x="374.5" y="465" width="17" height="17" fill="#000000"/>
<rect x="425.5" y="465" width="17" height="17" fill="#000000"/>
<rect x="459.5" y="465" width="17" height="17" fill="#000000"/>
<rect x="493.5" y="465" width="17" height="17" fill="#000000"/>
<rect x="527.5" y="465" width="17" height="17" fill="#000000"/>
<rect x="629.5" y="465" width="17" height="17" fill="#000000"/>
<rect x="153.5" y="482" width="17" height="17" fill="#000000"/>
<rect x="170.5" y="482" width="17" height="17" fill="#000000"/>
<rect x="187.5" y="482" width="17" height="17" fill="#000000"/>
<rect x="204.5" y="482" width="17" height="17" fill="#000000"/>
<rect x="221.5" y="482" width="17" height="17" fill="#000000"/>
<rect x="238.5" y="482" width="17" height="17" fill="#000000"/>
<rect x="255.5" y="482" width="17" height="17" fill="#000000"/>
<rect x="289.5" y="482" width="17" height="17" fill="#000000"/>
<rect x="323.5" y="482" width="17" height="17" fill="#000000"/>
<rect x="357.5" y="482" width="17" height="17" fill="#000000"/>
<rect x="391.5" y="482" width="17" height="17" fill="#000000"/>
<rect x="425.5" y="482" width="17" height="17" fill="#000000"/>
<rect x="459.5" y="482" width="17" height="17" fill="#000000"/>
<rect x="493.5" y="482" width="17" height="17" fill="#000000"/>
<rect x="527.5" y="482" width="17" height="17" fill="#000000"/>
<rect x="544.5" y="482" width="17" height="17" fill="#000000"/>
<rect x="561.5" y="482" width="17" height="17" fill="#000000"/>
<rect x="578.5" y="482" width="17" height="17" fill="#000000"/>
<rect x="595.5" y="482" width="17" height="17" fill="#000000"/>
<rect x="612.5" y="482" width="17" height="17" fill="#000000"/>
<rect x="629.5" y="482" width="17" height="17" fill="#000000"/>
<rect x="289.5" y="499" width="17" height="17" fill="#000000"/>
<rect x="306.5" y="499" width="17" height="17" fill="#000000"/>
<rect x="357.5" y="499" width="17" height="17" fill="#000000"/>
<rect x="391.5" y="499" width="17" height="17" fill="#000000"/>
<rect x="238.5" y="516" width="17" height="17" fill="#000000"/>
<rect x="255.5" y="516" width="17" height="17" fill="#000000"/>
<rect x="306.5" y="516" width="17" height="17" fill="#000000"/>
<rect x="323.5" y="516" width="17" height="17" fill="#000000"/>
<rect x="408.5" y="516" width="17" height="17" fill="#000000"/>
<rect x="459.5" y="516" width="17" height="17" fill="#000000"/>
<rect x="476.5" y="516" width="17" height="17" fill="#000000"/>
<rect x="527.5" y="516" width="17" height="17" fill="#000000"/>
<rect x="561.5" y="516" width="17" height="17" fill="#000000"/>
<rect x="595.5" y="516" width="17" height="17" fill="#000000"/>
<rect x="629.5" y="516" width="17" height="17" fill="#000000"/>
<rect x="170.5" y="533" width="17" height="17" fill="#000000"/>
<rect x="187.5" y="533" width="17" height="17" fill="#000000"/>
<rect x="238.5" y="533" width="17" height="17" fill="#000000"/>
<rect x="289.5" y="533" width="17" height="17" fill="#000000"/>
<rect x="340.5" y="533" width="17" height="17" fill="#000000"/>
<rect x="357.5" y="533" width="17" height="17" fill="#000000"/>
<rect x="374.5" y="533" width="17" height="17" fill="#000000"/>
<rect x="408.5" y="533" width="17" height="17" fill="#000000"/>
<rect x="442.5" y="533" width="17" height="17" fill="#000000"/>
<rect x="493.5" y="533" width="17" height="17" fill="#000000"/>
<rect x="510.5" y="533" width="17" height="17" fill="#000000"/>
<rect x="544.5" y="533" width="17" height="17" fill="#000000"/>
<rect x="561.5" y="533" width="17" height="17" fill="#000000"/>
<rect x="578.5" y="533" width="17" height="17" fill="#000000"/>
<rect x="612.5" y="533" width="17" height="17" fill="#000000"/>
<rect x="153.5" y="550" width="17" height="17" fill="#000000"/>
<rect x="170.5" y="550" width="17" height="17" fill="#000000"/>
<rect x="221.5" y="550" width="17" height="17" fill="#000000"/>
<rect x="255.5" y="550" width="17" height="17" fill="#000000"/>
<rect x="272.5" y="550" width="17" height="17" fill="#000000"/>
<rect x="289.5" y="550" width="17" height="17" fill="#000000"/>
<rect x="340.5" y="550" width="17" height="17" fill="#000000"/>
<rect x="357.5" y="550" width="17" height="17" fill="#000000"/>
<rect x="408.5" y="550" width="17" height="17" fill="#000000"/>
<rect x="442.5" y="550" width="17" height="17" fill="#000000"/>
<rect x="459.5" y="550" width="17" height="17" fill="#000000"/>
<rect x="510.5" y="550" width="17" height="17" fill="#000000"/>
<rect x="527.5" y="550" width="17" height="17" fill="#000000"/>
<rect x="544.5" y="550" width="17" height="17" fill="#000000"/>
<rect x="578.5" y="550" width="17" height="17" fill="#000000"/>
<rect x="595.5" y="550" width="17" height="17" fill="#000000"/>
<rect x="170.5" y="567" width="17" height="17" fill="#000000"/>
<rect x="187.5" y="567" width="17" height="17" fill="#000000"/>
<rect x="221.5" y="567" width="17" height="17" fill="#000000"/>
<rect x="272.5" y="567" width="17" height="17" fill="#000000"/>
<rect x="289.5" y="567" width="17" height="17" fill="#000000"/>
<rect x="340.5" y="567" width="17" height="17" fill="#000000"/>
<rect x="374.5" y="567" width="17" height="17" fill="#000000"/>
<rect x="425.5" y="567" width="17" height="17" fill="#000000"/>
<rect x="459.5" y="567" width="17" height="17" fill="#000000"/>
<rect x="493.5" y="567" width="17" height="17" fill="#000000"/>
<rect x="527.5" y="567" width="17" height="17" fill="#000000"/>
<rect x="561.5" y="567" width="17" height="17" fill="#000000"/>
<rect x="578.5" y="567" width="17" height="17" fill="#000000"/>
<rect x="153.5" y="584" width="17" height="17" fill="#000000"/>
<rect x="170.5" y="584" width="17" height="17" fill="#000000"/>
<rect x="221.5" y="584" width="17" height="17" fill="#000000"/>
<rect x="255.5" y="584" width="17" height="17" fill="#000000"/>
<rect x="323.5" y="584" width="17" height="17" fill="#000000"/>
<rect x="340.5" y="584" width="17" height="17" fill="#000000"/>
<rect x="357.5" y="584" width="17" height="17" fill="#000000"/>
<rect x="391.5" y="584" width="17" height="17" fill="#000000"/>
<rect x="442.5" y="584" width="17" height="17" fill="#000000"/>
<rect x="493.5" y="584" width="17" height="17" fill="#000000"/>
<rect x="510.5" y="584" width="17" height="17" fill="#000000"/>
<rect x="527.5" y="584" width="17" height="17" fill="#000000"/>
<rect x="578.5" y="584" width="17" height="17" fill="#000000"/>
<rect x="612.5" y="584" width="17" height="17" fill="#000000"/>
<rect x="170.5" y="601" width="17" height="17" fill="#000000"/>
<rect x="187.5" y="601" width="17" height="17" fill="#000000"/>
<rect x="204.5" y="601" width="17" height="17" fill="#000000"/>
<rect x="272.5" y="601" width="17" height="17" fill="#000000"/>
<rect x="289.5" y="601" width="17" height="17" fill="#000000"/>
<rect x="323.5" y="601" width="17" height="17" fill="#000000"/>
<rect x="408.5" y="601" width="17" height="17" fill="#000000"/>
<rect x="442.5" y="601" width="17" height="17" fill="#000000"/>
<rect x="459.5" y="601" width="17" height="17" fill="#000000"/>
<rect x="476.5" y="601" width="17" height="17" fill="#000000"/>
<rect x="493.5" y="601" width="17" height="17" fill="#000000"/>
<rect x="527.5" y="601" width="17" height="17" fill="#000000"/>
<rect x="561.5" y="601" width="17" height="17" fill="#000000"/>
<rect x="578.5" y="601" width="17" height="17" fill="#000000"/>
<rect x="629.5" y="601" width="17" height="17" fill="#000000"/>
<rect x="153.5" y="618" width="17" height="17" fill="#000000"/>
<rect x="187.5" y="618" width="17" height="17" fill="#000000"/>
<rect x="238.5" y="618" width="17" height="17" fill="#000000"/>
<rect x="255.5" y="618" width="17" height="17" fill="#000000"/>
<rect x="272.5" y="618" width="17" height="17" fill="#000000"/>
<rect x="306.5" y="618" width="17" height="17" fill="#000000"/>
<rect x="323.5" y="618" width="17" height="17" fill="#000000"/>
<rect x="340.5" y="618" width="17" height="17" fill="#000000"/>
<rect x="357.5" y="618" width="17" height="17" fill="#000000"/>
<rect x="408.5" y="618" width="17" height="17" fill="#000000"/>
<rect x="425.5" y="618" width="17" height="17" fill="#000000"/>
<rect x="493.5" y="618" width="17" height="17" fill="#000000"/>
<rect x="510.5" y="618" width="17" height="17" fill="#000000"/>
<rect x="544.5" y="618" width="17" height="17" fill="#000000"/>
<rect x="153.5" y="635" width="17" height="17" fill="#000000"/>
<rect x="187.5" y="635" width="17" height="17" fill="#000000"/>
<rect x="204.5" y="635" width="17" height="17" fill="#000000"/>
<rect x="238.5" y="635" width="17" height="17" fill="#000000"/>
<rect x="272.5" y="635" width="17" height="17" fill="#000000"/>
<rect x="289.5" y="635" width="17" height="17" fill="#000000"/>
<rect x="306.5" y="635" width="17" height="17" fill="#000000"/>
<rect x="323.5" y="635" width="17" height="17" fill="#000000"/>
<rect x="340.5" y="635" width="17" height="17" fill="#000000"/>
<rect x="357.5" y="635" width="17" height="17" fill="#000000"/>
<rect x="374.5" y="635" width="17" height="17" fill="#000000"/>
<rect x="476.5" y="635" width="17" height="17" fill="#000000"/>
<rect x="493.5" y="635" width="17" height="17" fill="#000000"/>
<rect x="510.5" y="635" width="17" height="17" fill="#000000"/>
<rect x="561.5" y="635" width="17" height="17" fill="#000000"/>
<rect x="578.5" y="635" width="17" height="17" fill="#000000"/>
<rect x="595.5" y="635" width="17" height="17" fill="#000000"/>
<rect x="612.5" y="635" width="17" height="17" fill="#000000"/>
<rect x="221.5" y="652" width="17" height="17" fill="#000000"/>
<rect x="238.5" y="652" width="17" height="17" fill="#000000"/>
<rect x="255.5" y="652" width="17" height="17" fill="#000000"/>
<rect x="289.5" y="652" width="17" height="17" fill="#000000"/>
<rect x="323.5" y="652" width="17" height="17" fill="#000000"/>
<rect x="374.5" y="652" width="17" height="17" fill="#000000"/>
<rect x="408.5" y="652" width="17" height="17" fill="#000000"/>
<rect x="459.5" y="652" width="17" height="17" fill="#000000"/>
<rect x="510.5" y="652" width="17" height="17" fill="#000000"/>
<rect x="544.5" y="652" width="17" height="17" fill="#000000"/>
<rect x="578.5" y="652" width="17" height="17" fill="#000000"/>
<rect x="595.5" y="652" width="17" height="17" fill="#000000"/>
<rect x="612.5" y="652" width="17" height="17" fill="#000000"/>
<rect x="153.5" y="669" width="17" height="17" fill="#000000"/>
<rect x="204.5" y="669" width="17" height="17" fill="#000000"/>
<rect x="272.5" y="669" width="17" height="17" fill="#000000"/>
<rect x="289.5" y="669" width="17" height="17" fill="#000000"/>
<rect x="323.5" y="669" width="17" height="17" fill="#000000"/>
<rect x="340.5" y="669" width="17" height="17" fill="#000000"/>
<rect x="374.5" y="669" width="17" height="17" fill="#000000"/>
<rect x="459.5" y="669" width="17" height="17" fill="#000000"/>
<rect x="476.5" y="669" width="17" height="17" fill="#000000"/>
<rect x="493.5" y="669" width="17" height="17" fill="#000000"/>
<rect x="527.5" y="669" width="17" height="17" fill="#000000"/>
<rect x="544.5" y="669" width="17" height="17" fill="#000000"/>
<rect x="561.5" y="669" width="17" height="17" fill="#000000"/>
<rect x="578.5" y="669" width="17" height="17" fill="#000000"/>
<rect x="595.5" y="669" width="17" height="17" fill="#000000"/>
<rect x="629.5" y="669" width="17" height="17" fill="#000000"/>
<rect x="153.5" y="686" width="17" height="17" fill="#000000"/>
<rect x="170.5" y="686" width="17" height="17" fill="#000000"/>
<rect x="187.5" y="686" width="17" height="17" fill="#000000"/>
<rect x="204.5" y="686" width="17" height="17" fill="#000000"/>
<rect x="238.5" y="686" width="17" height="17" fill="#000000"/>
<rect x="255.5" y="686" width="17" height="17" fill="#000000"/>
<rect x="289.5" y="686" width="17" height="17" fill="#000000"/>
<rect x="306.5" y="686" width="17" height="17" fill="#000000"/>
<rect x="323.5" y="686" width="17" height="17" fill="#000000"/>
<rect x="357.5" y="686" width="17" height="17" fill="#000000"/>
<rect x="374.5" y="686" width="17" height="17" fill="#000000"/>
<rect x="425.5" y="686" width="17" height="17" fill="#000000"/>
<rect x="442.5" y="686" width="17" height="17" fill="#000000"/>
<rect x="459.5" y="686" width="17" height="17" fill="#000000"/>
<rect x="476.5" y="686" width="17" height="17" fill="#000000"/>
<rect x="493.5" y="686" width="17" height="17" fill="#000000"/>
<rect x="561.5" y="686" width="17" height="17" fill="#000000"/>
<rect x="595.5" y="686" width="17" height="17" fill="#000000"/>
<rect x="629.5" y="686" width="17" height="17" fill="#000000"/>
<rect x="153.5" y="703" width="17" height="17" fill="#000000"/>
<rect x="187.5" y="703" width="17" height="17" fill="#000000"/>
<rect x="204.5" y="703" width="17" height="17" fill="#000000"/>
<rect x="221.5" y="703" width="17" height="17" fill="#000000"/>
<rect x="306.5" y="703" width="17" height="17" fill="#000000"/>
<rect x="340.5" y="703" width="17" height="17" fill="#000000"/>
<rect x="408.5" y="703" width="17" height="17" fill="#000000"/>
<rect x="459.5" y="703" width="17" height="17" fill="#000000"/>
<rect x="510.5" y="703" width="17" height="17" fill="#000000"/>
<rect x="527.5" y="703" width="17" height="17" fill="#000000"/>
<rect x="561.5" y="703" width="17" height="17" fill="#000000"/>
<rect x="578.5" y="703" width="17" height="17" fill="#000000"/>
<rect x="629.5" y="703" width="17" height="17" fill="#000000"/>
<rect x="153.5" y="720" width="17" height="17" fill="#000000"/>
<rect x="204.5" y="720" width="17" height="17" fill="#000000"/>
<rect x="255.5" y="720" width="17" height="17" fill="#000000"/>
<rect x="272.5" y="720" width="17" height="17" fill="#000000"/>
<rect x="323.5" y="720" width="17" height="17" fill="#000000"/>
<rect x="340.5" y="720" width="17" height="17" fill="#000000"/>
<rect x="357.5" y="720" width="17" height="17" fill="#000000"/>
<rect x="374.5" y="720" width="17" height="17" fill="#000000"/>
<rect x="425.5" y="720" width="17" height="17" fill="#000000"/>
<rect x="459.5" y="720" width="17" height="17" fill="#000000"/>
<rect x="493.5" y="720" width="17" height="17" fill="#000000"/>
<rect x="510.5" y="720" width="17" height="17" fill="#000000"/>
<rect x="527.5" y="720" width="17" height="17" fill="#000000"/>
<rect x="544.5" y="720" width="17" height="17" fill="#000000"/>
<rect x="561.5" y="720" width="17" height="17" fill="#000000"/>
<rect x="578.5" y="720" width="17" height="17" fill="#000000"/>
<rect x="595.5" y="720" width="17" height="17" fill="#000000"/>
<rect x="289.5" y="737" width="17" height="17" fill="#000000"/>
<rect x="323.5" y="737" width="17" height="17" fill="#000000"/>
<rect x="357.5" y="737" width="17" height="17" fill="#000000"/>
<rect x="408.5" y="737" width="17" height="17" fill="#000000"/>
<rect x="442.5" y="737" width="17" height="17" fill="#000000"/>
<rect x="493.5" y="737" width="17" height="17" fill="#000000"/>
<rect x="561.5" y="737" width="17" height="17" fill="#000000"/>
<rect x="578.5" y="737" width="17" height="17" fill="#000000"/>
<rect x="595.5" y="737" width="17" height="17" fill="#000000"/>
<rect x="153.5" y="754" width="17" height="17" fill="#000000"/>
<rect x="170.5" y="754" width="17" height="17" fill="#000000"/>
<rect x="187.5" y="754" width="17" height="17" fill="#000000"/>
<rect x="204.5" y="754" width="17" height="17" fill="#000000"/>
<rect x="221.5" y="754" width="17" height="17" fill="#000000"/>
<rect x="238.5" y="754" width="17" height="17" fill="#000000"/>
<rect x="255.5" y="754" width="17" height="17" fill="#000000"/>
<rect x="306.5" y="754" width="17" height="17" fill="#000000"/>
<rect x="323.5" y="754" width="17" height="17" fill="#000000"/>
<rect x="374.5" y="754" width="17" height="17" fill="#000000"/>
<rect x="391.5" y="754" width="17" height="17" fill="#000000"/>
<rect x="408.5" y="754" width="17" height="17" fill="#000000"/>
<rect x="476.5" y="754" width="17" height="17" fill="#000000"/>
<rect x="493.5" y="754" width="17" height="17" fill="#000000"/>
<rect x="527.5" y="754" width="17" height="17" fill="#000000"/>
<rect x="561.5" y="754" width="17" height="17" fill="#000000"/>
<rect x="153.5" y="771" width="17" height="17" fill="#000000"/>
<rect x="255.5" y="771" width="17" height="17" fill="#000000"/>
<rect x="289.5" y="771" width="17" height="17" fill="#000000"/>
<rect x="323.5" y="771" width="17" height="17" fill="#000000"/>
<rect x="442.5" y="771" width="17" height="17" fill="#000000"/>
<rect x="476.5" y="771" width="17" height="17" fill="#000000"/>
<rect x="493.5" y="771" width="17" height="17" fill="#000000"/>
<rect x="561.5" y="771" width="17" height="17" fill="#000000"/>
<rect x="578.5" y="771" width="17" height="17" fill="#000000"/>
<rect x="612.5" y="771" width="17" height="17" fill="#000000"/>
<rect x="153.5" y="788" width="17" height="17" fill="#000000"/>
<rect x="187.5" y="788" width="17" height="17" fill="#000000"/>
<rect x="204.5" y="788" width="17" height="17" fill="#000000"/>
<rect x="221.5" y="788" width="17" height="17" fill="#000000"/>
<rect x="255.5" y="788" width="17" height="17" fill="#000000"/>
<rect x="306.5" y="788" width="17" height="17" fill="#000000"/>
<rect x="323.5" y="788" width="17" height="17" fill="#000000"/>
<rect x="374.5" y="788" width="17" height="17" fill="#000000"/>
<rect x="408.5" y="788" width="17" height="17" fill="#000000"/>
<rect x="425.5" y="788" width="17" height="17" fill="#000000"/>
<rect x="442.5" y="788" width="17" height="17" fill="#000000"/>
<rect x="476.5" y="788" width="17" height="17" fill="#000000"/>
<rect x="493.5" y="788" width="17" height="17" fill="#000000"/>
<rect x="510.5" y="788" width="17" height="17" fill="#000000"/>
<rect x="527.5" y="788" width="17" height="17" fill="#000000"/>
<rect x="544.5" y="788" width="17" height="17" fill="#000000"/>
<rect x="561.5" y="788" width="17" height="17" fill="#000000"/>
<rect x="612.5" y="788" width="17" height="17" fill="#000000"/>
<rect x="153.5" y="805" width="17" height="17" fill="#000000"/>
<rect x="187.5" y="805" width="17" height="17" fill="#000000"/>
<rect x="204.5" y="805" width="17" height="17" fill="#000000"/>
<rect x="221.5" y="805" width="17" height="17" fill="#000000"/>
<rect x="255.5" y="805" width="17" height="17" fill="#000000"/>
<rect x="323.5" y="805" width="17" height="17" fill="#000000"/>
<rect x="340.5" y="805" width="17" height="17" fill="#000000"/>
<rect x="391.5" y="805" width="17" height="17" fill="#000000"/>
<rect x="476.5" y="805" width="17" height="17" fill="#000000"/>
<rect x="493.5" y="805" width="17" height="17" fill="#000000"/>
<rect x="544.5" y="805" width="17" height="17" fill="#000000"/>
<rect x="612.5" y="805" width="17" height="17" fill="#000000"/>
<rect x="153.5" y="822" width="17" height="17" fill="#000000"/>
<rect x="187.5" y="822" width="17" height="17" fill="#000000"/>
<rect x="204.5" y="822" width="17" height="17" fill="#000000"/>
<rect x="221.5" y="822" width="17" height="17" fill="#000000"/>
<rect x="255.5" y="822" width="17" height="17" fill="#000000"/>
<rect x="323.5" y="822" width="17" height="17" fill="#000000"/>
<rect x="357.5" y="822" width="17" height="17" fill="#000000"/>
<rect x="374.5" y="822" width="17" height="17" fill="#000000"/>
<rect x="408.5" y="822" width="17" height="17" fill="#000000"/>
<rect x="425.5" y="822" width="17" height="17" fill="#000000"/>
<rect x="476.5" y="822" width="17" height="17" fill="#000000"/>
<rect x="493.5" y="822" width="17" height="17" fill="#000000"/>
<rect x="510.5" y="822" width="17" height="17" fill="#000000"/>
<rect x="527.5" y="822" width="17" height="17" fill="#000000"/>
<rect x="544.5" y="822" width="17" height="17" fill="#000000"/>
<rect x="561.5" y="822" width="17" height="17" fill="#000000"/>
<rect x="612.5" y="822" width="17" height="17" fill="#000000"/>
<rect x="153.5" y="839" width="17" height="17" fill="#000000"/>
<rect x="255.5" y="839" width="17" height="17" fill="#000000"/>
<rect x="323.5" y="839" width="17" height="17" fill="#000000"/>
<rect x="357.5" y="839" width="17" height="17" fill="#000000"/>
<rect x="442.5" y="839" width="17" height="17" fill="#000000"/>
<rect x="476.5" y="839" width="17" height="17" fill="#000000"/>
<rect x="510.5" y="839" width="17" height="17" fill="#000000"/>
<rect x="561.5" y="839" width="17" height="17" fill="#000000"/>
<rect x="578.5" y="839" width="17" height="17" fill="#000000"/>
<rect x="595.5" y="839" width="17" height="17" fill="#000000"/>
<rect x="629.5" y="839" width="17" height="17" fill="#000000"/>
<rect x="153.5" y="856" width="17" height="17" fill="#000000"/>
<rect x="170.5" y="856" width="17" height="17" fill="#000000"/>
<rect x="187.5" y="856" width="17" height="17" fill="#000000"/>
<rect x="204.5" y="856" width="17" height="17" fill="#000000"/>
<rect x="221.5" y="856" width="17" height="17" fill="#000000"/>
<rect x="238.5" y="856" width="17" height="17" fill="#000000"/>
<rect x="255.5" y="856" width="17" height="17" fill="#000000"/>
<rect x="306.5" y="856" width="17" height="17" fill="#000000"/>
<rect x="340.5" y="856" width="17" height="17" fill="#000000"/>
<rect x="357.5" y="856" width="17" height="17" fill="#000000"/>
<rect x="374.5" y="856" width="17" height="17" fill="#000000"/>
<rect x="391.5" y="856" width="17" height="17" fill="#000000"/>
<rect x="425.5" y="856" width="17" height="17" fill="#000000"/>
<rect x="442.5" y="856" width="17" height="17" fill="#000000"/>
<rect x="459.5" y="856" width="17" height="17" fill="#000000"/>
<rect x="476.5" y="856" width="17" height="17" fill="#000000"/>
<rect x="510.5" y="856" width="17" height="17" fill="#000000"/>
<rect x="527.5" y="856" width="17" height="17" fill="#000000"/>
<rect x="561.5" y="856" width="17" height="17" fill="#000000"/>
<rect x="595.5" y="856" width="17" height="17" fill="#000000"/>

  <!-- URL -->
  <text x="400.0" y="1050" text-anchor="middle"
        font-family="Helvetica, Arial, sans-serif"
        font-size="38" font-weight="700" fill="#000000"
        letter-spacing="1">citycompass.pl</text>
</svg>
