<?xml version="1.0" encoding="UTF-8"?>
<svg xmlns="http://www.w3.org/2000/svg" viewBox="0 0 800 800" width="80mm" height="80mm">
  <rect width="800" height="800" fill="#ffffff"/>

  <!-- WiFi icon + headline inline -->
  
    <g transform="translate(155,145)">
      <path d="M -42.5 -7.5 A 45.0 45.0 0 0 1 42.5 -7.5"
            stroke="#000000" stroke-width="9.0" fill="none" stroke-linecap="round"/>
      <path d="M -27.500000000000004 6.0 A 30.0 30.0 0 0 1 27.500000000000004 6.0"
            stroke="#000000" stroke-width="9.0" fill="none" stroke-linecap="round"/>
      <path d="M -12.5 20.0 A 15.0 15.0 0 0 1 12.5 20.0"
            stroke="#000000" stroke-width="9.0" fill="none" stroke-linecap="round"/>
      <circle cx="0" cy="31.0" r="5.5" fill="#000000"/>
    </g>
    

  <text x="220" y="170" text-anchor="start"
        font-family="Helvetica, Arial, sans-serif"
        font-size="74" font-weight="900" fill="#000000"
        letter-spacing="-2">FREE WIFI</text>

  <rect x="197.0" y="250" width="14" height="14" fill="#000000"/>
<rect x="211.0" y="250" width="14" height="14" fill="#000000"/>
<rect x="225.0" y="250" width="14" height="14" fill="#000000"/>
<rect x="239.0" y="250" width="14" height="14" fill="#000000"/>
<rect x="253.0" y="250" width="14" height="14" fill="#000000"/>
<rect x="267.0" y="250" width="14" height="14" fill="#000000"/>
<rect x="281.0" y="250" width="14" height="14" fill="#000000"/>
<rect x="309.0" y="250" width="14" height="14" fill="#000000"/>
<rect x="351.0" y="250" width="14" height="14" fill="#000000"/>
<rect x="365.0" y="250" width="14" height="14" fill="#000000"/>
<rect x="379.0" y="250" width="14" height="14" fill="#000000"/>
<rect x="421.0" y="250" width="14" height="14" fill="#000000"/>
<rect x="435.0" y="250" width="14" height="14" fill="#000000"/>
<rect x="449.0" y="250" width="14" height="14" fill="#000000"/>
<rect x="463.0" y="250" width="14" height="14" fill="#000000"/>
<rect x="505.0" y="250" width="14" height="14" fill="#000000"/>
<rect x="519.0" y="250" width="14" height="14" fill="#000000"/>
<rect x="533.0" y="250" width="14" height="14" fill="#000000"/>
<rect x="547.0" y="250" width="14" height="14" fill="#000000"/>
<rect x="561.0" y="250" width="14" height="14" fill="#000000"/>
<rect x="575.0" y="250" width="14" height="14" fill="#000000"/>
<rect x="589.0" y="250" width="14" height="14" fill="#000000"/>
<rect x="197.0" y="264" width="14" height="14" fill="#000000"/>
<rect x="281.0" y="264" width="14" height="14" fill="#000000"/>
<rect x="351.0" y="264" width="14" height="14" fill="#000000"/>
<rect x="463.0" y="264" width="14" height="14" fill="#000000"/>
<rect x="505.0" y="264" width="14" height="14" fill="#000000"/>
<rect x="589.0" y="264" width="14" height="14" fill="#000000"/>
<rect x="197.0" y="278" width="14" height="14" fill="#000000"/>
<rect x="225.0" y="278" width="14" height="14" fill="#000000"/>
<rect x="239.0" y="278" width="14" height="14" fill="#000000"/>
<rect x="253.0" y="278" width="14" height="14" fill="#000000"/>
<rect x="281.0" y="278" width="14" height="14" fill="#000000"/>
<rect x="309.0" y="278" width="14" height="14" fill="#000000"/>
<rect x="323.0" y="278" width="14" height="14" fill="#000000"/>
<rect x="351.0" y="278" width="14" height="14" fill="#000000"/>
<rect x="365.0" y="278" width="14" height="14" fill="#000000"/>
<rect x="379.0" y="278" width="14" height="14" fill="#000000"/>
<rect x="421.0" y="278" width="14" height="14" fill="#000000"/>
<rect x="449.0" y="278" width="14" height="14" fill="#000000"/>
<rect x="463.0" y="278" width="14" height="14" fill="#000000"/>
<rect x="477.0" y="278" width="14" height="14" fill="#000000"/>
<rect x="505.0" y="278" width="14" height="14" fill="#000000"/>
<rect x="533.0" y="278" width="14" height="14" fill="#000000"/>
<rect x="547.0" y="278" width="14" height="14" fill="#000000"/>
<rect x="561.0" y="278" width="14" height="14" fill="#000000"/>
<rect x="589.0" y="278" width="14" height="14" fill="#000000"/>
<rect x="197.0" y="292" width="14" height="14" fill="#000000"/>
<rect x="225.0" y="292" width="14" height="14" fill="#000000"/>
<rect x="239.0" y="292" width="14" height="14" fill="#000000"/>
<rect x="253.0" y="292" width="14" height="14" fill="#000000"/>
<rect x="281.0" y="292" width="14" height="14" fill="#000000"/>
<rect x="323.0" y="292" width="14" height="14" fill="#000000"/>
<rect x="337.0" y="292" width="14" height="14" fill="#000000"/>
<rect x="365.0" y="292" width="14" height="14" fill="#000000"/>
<rect x="379.0" y="292" width="14" height="14" fill="#000000"/>
<rect x="393.0" y="292" width="14" height="14" fill="#000000"/>
<rect x="407.0" y="292" width="14" height="14" fill="#000000"/>
<rect x="421.0" y="292" width="14" height="14" fill="#000000"/>
<rect x="435.0" y="292" width="14" height="14" fill="#000000"/>
<rect x="463.0" y="292" width="14" height="14" fill="#000000"/>
<rect x="505.0" y="292" width="14" height="14" fill="#000000"/>
<rect x="533.0" y="292" width="14" height="14" fill="#000000"/>
<rect x="547.0" y="292" width="14" height="14" fill="#000000"/>
<rect x="561.0" y="292" width="14" height="14" fill="#000000"/>
<rect x="589.0" y="292" width="14" height="14" fill="#000000"/>
<rect x="197.0" y="306" width="14" height="14" fill="#000000"/>
<rect x="225.0" y="306" width="14" height="14" fill="#000000"/>
<rect x="239.0" y="306" width="14" height="14" fill="#000000"/>
<rect x="253.0" y="306" width="14" height="14" fill="#000000"/>
<rect x="281.0" y="306" width="14" height="14" fill="#000000"/>
<rect x="309.0" y="306" width="14" height="14" fill="#000000"/>
<rect x="337.0" y="306" width="14" height="14" fill="#000000"/>
<rect x="351.0" y="306" width="14" height="14" fill="#000000"/>
<rect x="379.0" y="306" width="14" height="14" fill="#000000"/>
<rect x="463.0" y="306" width="14" height="14" fill="#000000"/>
<rect x="477.0" y="306" width="14" height="14" fill="#000000"/>
<rect x="505.0" y="306" width="14" height="14" fill="#000000"/>
<rect x="533.0" y="306" width="14" height="14" fill="#000000"/>
<rect x="547.0" y="306" width="14" height="14" fill="#000000"/>
<rect x="561.0" y="306" width="14" height="14" fill="#000000"/>
<rect x="589.0" y="306" width="14" height="14" fill="#000000"/>
<rect x="197.0" y="320" width="14" height="14" fill="#000000"/>
<rect x="281.0" y="320" width="14" height="14" fill="#000000"/>
<rect x="365.0" y="320" width="14" height="14" fill="#000000"/>
<rect x="379.0" y="320" width="14" height="14" fill="#000000"/>
<rect x="421.0" y="320" width="14" height="14" fill="#000000"/>
<rect x="449.0" y="320" width="14" height="14" fill="#000000"/>
<rect x="477.0" y="320" width="14" height="14" fill="#000000"/>
<rect x="505.0" y="320" width="14" height="14" fill="#000000"/>
<rect x="589.0" y="320" width="14" height="14" fill="#000000"/>
<rect x="197.0" y="334" width="14" height="14" fill="#000000"/>
<rect x="211.0" y="334" width="14" height="14" fill="#000000"/>
<rect x="225.0" y="334" width="14" height="14" fill="#000000"/>
<rect x="239.0" y="334" width="14" height="14" fill="#000000"/>
<rect x="253.0" y="334" width="14" height="14" fill="#000000"/>
<rect x="267.0" y="334" width="14" height="14" fill="#000000"/>
<rect x="281.0" y="334" width="14" height="14" fill="#000000"/>
<rect x="309.0" y="334" width="14" height="14" fill="#000000"/>
<rect x="337.0" y="334" width="14" height="14" fill="#000000"/>
<rect x="365.0" y="334" width="14" height="14" fill="#000000"/>
<rect x="393.0" y="334" width="14" height="14" fill="#000000"/>
<rect x="421.0" y="334" width="14" height="14" fill="#000000"/>
<rect x="449.0" y="334" width="14" height="14" fill="#000000"/>
<rect x="477.0" y="334" width="14" height="14" fill="#000000"/>
<rect x="505.0" y="334" width="14" height="14" fill="#000000"/>
<rect x="519.0" y="334" width="14" height="14" fill="#000000"/>
<rect x="533.0" y="334" width="14" height="14" fill="#000000"/>
<rect x="547.0" y="334" width="14" height="14" fill="#000000"/>
<rect x="561.0" y="334" width="14" height="14" fill="#000000"/>
<rect x="575.0" y="334" width="14" height="14" fill="#000000"/>
<rect x="589.0" y="334" width="14" height="14" fill="#000000"/>
<rect x="309.0" y="348" width="14" height="14" fill="#000000"/>
<rect x="323.0" y="348" width="14" height="14" fill="#000000"/>
<rect x="365.0" y="348" width="14" height="14" fill="#000000"/>
<rect x="393.0" y="348" width="14" height="14" fill="#000000"/>
<rect x="267.0" y="362" width="14" height="14" fill="#000000"/>
<rect x="281.0" y="362" width="14" height="14" fill="#000000"/>
<rect x="323.0" y="362" width="14" height="14" fill="#000000"/>
<rect x="337.0" y="362" width="14" height="14" fill="#000000"/>
<rect x="407.0" y="362" width="14" height="14" fill="#000000"/>
<rect x="449.0" y="362" width="14" height="14" fill="#000000"/>
<rect x="463.0" y="362" width="14" height="14" fill="#000000"/>
<rect x="505.0" y="362" width="14" height="14" fill="#000000"/>
<rect x="533.0" y="362" width="14" height="14" fill="#000000"/>
<rect x="561.0" y="362" width="14" height="14" fill="#000000"/>
<rect x="589.0" y="362" width="14" height="14" fill="#000000"/>
<rect x="211.0" y="376" width="14" height="14" fill="#000000"/>
<rect x="225.0" y="376" width="14" height="14" fill="#000000"/>
<rect x="267.0" y="376" width="14" height="14" fill="#000000"/>
<rect x="309.0" y="376" width="14" height="14" fill="#000000"/>
<rect x="351.0" y="376" width="14" height="14" fill="#000000"/>
<rect x="365.0" y="376" width="14" height="14" fill="#000000"/>
<rect x="379.0" y="376" width="14" height="14" fill="#000000"/>
<rect x="407.0" y="376" width="14" height="14" fill="#000000"/>
<rect x="435.0" y="376" width="14" height="14" fill="#000000"/>
<rect x="477.0" y="376" width="14" height="14" fill="#000000"/>
<rect x="491.0" y="376" width="14" height="14" fill="#000000"/>
<rect x="519.0" y="376" width="14" height="14" fill="#000000"/>
<rect x="533.0" y="376" width="14" height="14" fill="#000000"/>
<rect x="547.0" y="376" width="14" height="14" fill="#000000"/>
<rect x="575.0" y="376" width="14" height="14" fill="#000000"/>
<rect x="197.0" y="390" width="14" height="14" fill="#000000"/>
<rect x="211.0" y="390" width="14" height="14" fill="#000000"/>
<rect x="253.0" y="390" width="14" height="14" fill="#000000"/>
<rect x="281.0" y="390" width="14" height="14" fill="#000000"/>
<rect x="295.0" y="390" width="14" height="14" fill="#000000"/>
<rect x="309.0" y="390" width="14" height="14" fill="#000000"/>
<rect x="351.0" y="390" width="14" height="14" fill="#000000"/>
<rect x="365.0" y="390" width="14" height="14" fill="#000000"/>
<rect x="407.0" y="390" width="14" height="14" fill="#000000"/>
<rect x="435.0" y="390" width="14" height="14" fill="#000000"/>
<rect x="449.0" y="390" width="14" height="14" fill="#000000"/>
<rect x="491.0" y="390" width="14" height="14" fill="#000000"/>
<rect x="505.0" y="390" width="14" height="14" fill="#000000"/>
<rect x="519.0" y="390" width="14" height="14" fill="#000000"/>
<rect x="547.0" y="390" width="14" height="14" fill="#000000"/>
<rect x="561.0" y="390" width="14" height="14" fill="#000000"/>
<rect x="211.0" y="404" width="14" height="14" fill="#000000"/>
<rect x="225.0" y="404" width="14" height="14" fill="#000000"/>
<rect x="253.0" y="404" width="14" height="14" fill="#000000"/>
<rect x="295.0" y="404" width="14" height="14" fill="#000000"/>
<rect x="309.0" y="404" width="14" height="14" fill="#000000"/>
<rect x="351.0" y="404" width="14" height="14" fill="#000000"/>
<rect x="379.0" y="404" width="14" height="14" fill="#000000"/>
<rect x="421.0" y="404" width="14" height="14" fill="#000000"/>
<rect x="449.0" y="404" width="14" height="14" fill="#000000"/>
<rect x="477.0" y="404" width="14" height="14" fill="#000000"/>
<rect x="505.0" y="404" width="14" height="14" fill="#000000"/>
<rect x="533.0" y="404" width="14" height="14" fill="#000000"/>
<rect x="547.0" y="404" width="14" height="14" fill="#000000"/>
<rect x="197.0" y="418" width="14" height="14" fill="#000000"/>
<rect x="211.0" y="418" width="14" height="14" fill="#000000"/>
<rect x="253.0" y="418" width="14" height="14" fill="#000000"/>
<rect x="281.0" y="418" width="14" height="14" fill="#000000"/>
<rect x="337.0" y="418" width="14" height="14" fill="#000000"/>
<rect x="351.0" y="418" width="14" height="14" fill="#000000"/>
<rect x="365.0" y="418" width="14" height="14" fill="#000000"/>
<rect x="393.0" y="418" width="14" height="14" fill="#000000"/>
<rect x="435.0" y="418" width="14" height="14" fill="#000000"/>
<rect x="477.0" y="418" width="14" height="14" fill="#000000"/>
<rect x="491.0" y="418" width="14" height="14" fill="#000000"/>
<rect x="505.0" y="418" width="14" height="14" fill="#000000"/>
<rect x="547.0" y="418" width="14" height="14" fill="#000000"/>
<rect x="575.0" y="418" width="14" height="14" fill="#000000"/>
<rect x="211.0" y="432" width="14" height="14" fill="#000000"/>
<rect x="225.0" y="432" width="14" height="14" fill="#000000"/>
<rect x="239.0" y="432" width="14" height="14" fill="#000000"/>
<rect x="295.0" y="432" width="14" height="14" fill="#000000"/>
<rect x="309.0" y="432" width="14" height="14" fill="#000000"/>
<rect x="337.0" y="432" width="14" height="14" fill="#000000"/>
<rect x="407.0" y="432" width="14" height="14" fill="#000000"/>
<rect x="435.0" y="432" width="14" height="14" fill="#000000"/>
<rect x="449.0" y="432" width="14" height="14" fill="#000000"/>
<rect x="463.0" y="432" width="14" height="14" fill="#000000"/>
<rect x="477.0" y="432" width="14" height="14" fill="#000000"/>
<rect x="505.0" y="432" width="14" height="14" fill="#000000"/>
<rect x="533.0" y="432" width="14" height="14" fill="#000000"/>
<rect x="547.0" y="432" width="14" height="14" fill="#000000"/>
<rect x="589.0" y="432" width="14" height="14" fill="#000000"/>
<rect x="197.0" y="446" width="14" height="14" fill="#000000"/>
<rect x="225.0" y="446" width="14" height="14" fill="#000000"/>
<rect x="267.0" y="446" width="14" height="14" fill="#000000"/>
<rect x="281.0" y="446" width="14" height="14" fill="#000000"/>
<rect x="295.0" y="446" width="14" height="14" fill="#000000"/>
<rect x="323.0" y="446" width="14" height="14" fill="#000000"/>
<rect x="337.0" y="446" width="14" height="14" fill="#000000"/>
<rect x="351.0" y="446" width="14" height="14" fill="#000000"/>
<rect x="365.0" y="446" width="14" height="14" fill="#000000"/>
<rect x="407.0" y="446" width="14" height="14" fill="#000000"/>
<rect x="421.0" y="446" width="14" height="14" fill="#000000"/>
<rect x="477.0" y="446" width="14" height="14" fill="#000000"/>
<rect x="491.0" y="446" width="14" height="14" fill="#000000"/>
<rect x="519.0" y="446" width="14" height="14" fill="#000000"/>
<rect x="197.0" y="460" width="14" height="14" fill="#000000"/>
<rect x="225.0" y="460" width="14" height="14" fill="#000000"/>
<rect x="239.0" y="460" width="14" height="14" fill="#000000"/>
<rect x="267.0" y="460" width="14" height="14" fill="#000000"/>
<rect x="295.0" y="460" width="14" height="14" fill="#000000"/>
<rect x="309.0" y="460" width="14" height="14" fill="#000000"/>
<rect x="323.0" y="460" width="14" height="14" fill="#000000"/>
<rect x="337.0" y="460" width="14" height="14" fill="#000000"/>
<rect x="351.0" y="460" width="14" height="14" fill="#000000"/>
<rect x="365.0" y="460" width="14" height="14" fill="#000000"/>
<rect x="379.0" y="460" width="14" height="14" fill="#000000"/>
<rect x="463.0" y="460" width="14" height="14" fill="#000000"/>
<rect x="477.0" y="460" width="14" height="14" fill="#000000"/>
<rect x="491.0" y="460" width="14" height="14" fill="#000000"/>
<rect x="533.0" y="460" width="14" height="14" fill="#000000"/>
<rect x="547.0" y="460" width="14" height="14" fill="#000000"/>
<rect x="561.0" y="460" width="14" height="14" fill="#000000"/>
<rect x="575.0" y="460" width="14" height="14" fill="#000000"/>
<rect x="253.0" y="474" width="14" height="14" fill="#000000"/>
<rect x="267.0" y="474" width="14" height="14" fill="#000000"/>
<rect x="281.0" y="474" width="14" height="14" fill="#000000"/>
<rect x="309.0" y="474" width="14" height="14" fill="#000000"/>
<rect x="337.0" y="474" width="14" height="14" fill="#000000"/>
<rect x="379.0" y="474" width="14" height="14" fill="#000000"/>
<rect x="407.0" y="474" width="14" height="14" fill="#000000"/>
<rect x="449.0" y="474" width="14" height="14" fill="#000000"/>
<rect x="491.0" y="474" width="14" height="14" fill="#000000"/>
<rect x="519.0" y="474" width="14" height="14" fill="#000000"/>
<rect x="547.0" y="474" width="14" height="14" fill="#000000"/>
<rect x="561.0" y="474" width="14" height="14" fill="#000000"/>
<rect x="575.0" y="474" width="14" height="14" fill="#000000"/>
<rect x="197.0" y="488" width="14" height="14" fill="#000000"/>
<rect x="239.0" y="488" width="14" height="14" fill="#000000"/>
<rect x="295.0" y="488" width="14" height="14" fill="#000000"/>
<rect x="309.0" y="488" width="14" height="14" fill="#000000"/>
<rect x="337.0" y="488" width="14" height="14" fill="#000000"/>
<rect x="351.0" y="488" width="14" height="14" fill="#000000"/>
<rect x="379.0" y="488" width="14" height="14" fill="#000000"/>
<rect x="449.0" y="488" width="14" height="14" fill="#000000"/>
<rect x="463.0" y="488" width="14" height="14" fill="#000000"/>
<rect x="477.0" y="488" width="14" height="14" fill="#000000"/>
<rect x="505.0" y="488" width="14" height="14" fill="#000000"/>
<rect x="519.0" y="488" width="14" height="14" fill="#000000"/>
<rect x="533.0" y="488" width="14" height="14" fill="#000000"/>
<rect x="547.0" y="488" width="14" height="14" fill="#000000"/>
<rect x="561.0" y="488" width="14" height="14" fill="#000000"/>
<rect x="589.0" y="488" width="14" height="14" fill="#000000"/>
<rect x="197.0" y="502" width="14" height="14" fill="#000000"/>
<rect x="211.0" y="502" width="14" height="14" fill="#000000"/>
<rect x="225.0" y="502" width="14" height="14" fill="#000000"/>
<rect x="239.0" y="502" width="14" height="14" fill="#000000"/>
<rect x="267.0" y="502" width="14" height="14" fill="#000000"/>
<rect x="281.0" y="502" width="14" height="14" fill="#000000"/>
<rect x="309.0" y="502" width="14" height="14" fill="#000000"/>
<rect x="323.0" y="502" width="14" height="14" fill="#000000"/>
<rect x="337.0" y="502" width="14" height="14" fill="#000000"/>
<rect x="365.0" y="502" width="14" height="14" fill="#000000"/>
<rect x="379.0" y="502" width="14" height="14" fill="#000000"/>
<rect x="421.0" y="502" width="14" height="14" fill="#000000"/>
<rect x="435.0" y="502" width="14" height="14" fill="#000000"/>
<rect x="449.0" y="502" width="14" height="14" fill="#000000"/>
<rect x="463.0" y="502" width="14" height="14" fill="#000000"/>
<rect x="477.0" y="502" width="14" height="14" fill="#000000"/>
<rect x="533.0" y="502" width="14" height="14" fill="#000000"/>
<rect x="561.0" y="502" width="14" height="14" fill="#000000"/>
<rect x="589.0" y="502" width="14" height="14" fill="#000000"/>
<rect x="197.0" y="516" width="14" height="14" fill="#000000"/>
<rect x="225.0" y="516" width="14" height="14" fill="#000000"/>
<rect x="239.0" y="516" width="14" height="14" fill="#000000"/>
<rect x="253.0" y="516" width="14" height="14" fill="#000000"/>
<rect x="323.0" y="516" width="14" height="14" fill="#000000"/>
<rect x="351.0" y="516" width="14" height="14" fill="#000000"/>
<rect x="407.0" y="516" width="14" height="14" fill="#000000"/>
<rect x="449.0" y="516" width="14" height="14" fill="#000000"/>
<rect x="491.0" y="516" width="14" height="14" fill="#000000"/>
<rect x="505.0" y="516" width="14" height="14" fill="#000000"/>
<rect x="533.0" y="516" width="14" height="14" fill="#000000"/>
<rect x="547.0" y="516" width="14" height="14" fill="#000000"/>
<rect x="589.0" y="516" width="14" height="14" fill="#000000"/>
<rect x="197.0" y="530" width="14" height="14" fill="#000000"/>
<rect x="239.0" y="530" width="14" height="14" fill="#000000"/>
<rect x="281.0" y="530" width="14" height="14" fill="#000000"/>
<rect x="295.0" y="530" width="14" height="14" fill="#000000"/>
<rect x="337.0" y="530" width="14" height="14" fill="#000000"/>
<rect x="351.0" y="530" width="14" height="14" fill="#000000"/>
<rect x="365.0" y="530" width="14" height="14" fill="#000000"/>
<rect x="379.0" y="530" width="14" height="14" fill="#000000"/>
<rect x="421.0" y="530" width="14" height="14" fill="#000000"/>
<rect x="449.0" y="530" width="14" height="14" fill="#000000"/>
<rect x="477.0" y="530" width="14" height="14" fill="#000000"/>
<rect x="491.0" y="530" width="14" height="14" fill="#000000"/>
<rect x="505.0" y="530" width="14" height="14" fill="#000000"/>
<rect x="519.0" y="530" width="14" height="14" fill="#000000"/>
<rect x="533.0" y="530" width="14" height="14" fill="#000000"/>
<rect x="547.0" y="530" width="14" height="14" fill="#000000"/>
<rect x="561.0" y="530" width="14" height="14" fill="#000000"/>
<rect x="309.0" y="544" width="14" height="14" fill="#000000"/>
<rect x="337.0" y="544" width="14" height="14" fill="#000000"/>
<rect x="365.0" y="544" width="14" height="14" fill="#000000"/>
<rect x="407.0" y="544" width="14" height="14" fill="#000000"/>
<rect x="435.0" y="544" width="14" height="14" fill="#000000"/>
<rect x="477.0" y="544" width="14" height="14" fill="#000000"/>
<rect x="533.0" y="544" width="14" height="14" fill="#000000"/>
<rect x="547.0" y="544" width="14" height="14" fill="#000000"/>
<rect x="561.0" y="544" width="14" height="14" fill="#000000"/>
<rect x="197.0" y="558" width="14" height="14" fill="#000000"/>
<rect x="211.0" y="558" width="14" height="14" fill="#000000"/>
<rect x="225.0" y="558" width="14" height="14" fill="#000000"/>
<rect x="239.0" y="558" width="14" height="14" fill="#000000"/>
<rect x="253.0" y="558" width="14" height="14" fill="#000000"/>
<rect x="267.0" y="558" width="14" height="14" fill="#000000"/>
<rect x="281.0" y="558" width="14" height="14" fill="#000000"/>
<rect x="323.0" y="558" width="14" height="14" fill="#000000"/>
<rect x="337.0" y="558" width="14" height="14" fill="#000000"/>
<rect x="379.0" y="558" width="14" height="14" fill="#000000"/>
<rect x="393.0" y="558" width="14" height="14" fill="#000000"/>
<rect x="407.0" y="558" width="14" height="14" fill="#000000"/>
<rect x="463.0" y="558" width="14" height="14" fill="#000000"/>
<rect x="477.0" y="558" width="14" height="14" fill="#000000"/>
<rect x="505.0" y="558" width="14" height="14" fill="#000000"/>
<rect x="533.0" y="558" width="14" height="14" fill="#000000"/>
<rect x="197.0" y="572" width="14" height="14" fill="#000000"/>
<rect x="281.0" y="572" width="14" height="14" fill="#000000"/>
<rect x="309.0" y="572" width="14" height="14" fill="#000000"/>
<rect x="337.0" y="572" width="14" height="14" fill="#000000"/>
<rect x="435.0" y="572" width="14" height="14" fill="#000000"/>
<rect x="463.0" y="572" width="14" height="14" fill="#000000"/>
<rect x="477.0" y="572" width="14" height="14" fill="#000000"/>
<rect x="533.0" y="572" width="14" height="14" fill="#000000"/>
<rect x="547.0" y="572" width="14" height="14" fill="#000000"/>
<rect x="575.0" y="572" width="14" height="14" fill="#000000"/>
<rect x="197.0" y="586" width="14" height="14" fill="#000000"/>
<rect x="225.0" y="586" width="14" height="14" fill="#000000"/>
<rect x="239.0" y="586" width="14" height="14" fill="#000000"/>
<rect x="253.0" y="586" width="14" height="14" fill="#000000"/>
<rect x="281.0" y="586" width="14" height="14" fill="#000000"/>
<rect x="323.0" y="586" width="14" height="14" fill="#000000"/>
<rect x="337.0" y="586" width="14" height="14" fill="#000000"/>
<rect x="379.0" y="586" width="14" height="14" fill="#000000"/>
<rect x="407.0" y="586" width="14" height="14" fill="#000000"/>
<rect x="421.0" y="586" width="14" height="14" fill="#000000"/>
<rect x="435.0" y="586" width="14" height="14" fill="#000000"/>
<rect x="463.0" y="586" width="14" height="14" fill="#000000"/>
<rect x="477.0" y="586" width="14" height="14" fill="#000000"/>
<rect x="491.0" y="586" width="14" height="14" fill="#000000"/>
<rect x="505.0" y="586" width="14" height="14" fill="#000000"/>
<rect x="519.0" y="586" width="14" height="14" fill="#000000"/>
<rect x="533.0" y="586" width="14" height="14" fill="#000000"/>
<rect x="575.0" y="586" width="14" height="14" fill="#000000"/>
<rect x="197.0" y="600" width="14" height="14" fill="#000000"/>
<rect x="225.0" y="600" width="14" height="14" fill="#000000"/>
<rect x="239.0" y="600" width="14" height="14" fill="#000000"/>
<rect x="253.0" y="600" width="14" height="14" fill="#000000"/>
<rect x="281.0" y="600" width="14" height="14" fill="#000000"/>
<rect x="337.0" y="600" width="14" height="14" fill="#000000"/>
<rect x="351.0" y="600" width="14" height="14" fill="#000000"/>
<rect x="393.0" y="600" width="14" height="14" fill="#000000"/>
<rect x="463.0" y="600" width="14" height="14" fill="#000000"/>
<rect x="477.0" y="600" width="14" height="14" fill="#000000"/>
<rect x="519.0" y="600" width="14" height="14" fill="#000000"/>
<rect x="575.0" y="600" width="14" height="14" fill="#000000"/>
<rect x="197.0" y="614" width="14" height="14" fill="#000000"/>
<rect x="225.0" y="614" width="14" height="14" fill="#000000"/>
<rect x="239.0" y="614" width="14" height="14" fill="#000000"/>
<rect x="253.0" y="614" width="14" height="14" fill="#000000"/>
<rect x="281.0" y="614" width="14" height="14" fill="#000000"/>
<rect x="337.0" y="614" width="14" height="14" fill="#000000"/>
<rect x="365.0" y="614" width="14" height="14" fill="#000000"/>
<rect x="379.0" y="614" width="14" height="14" fill="#000000"/>
<rect x="407.0" y="614" width="14" height="14" fill="#000000"/>
<rect x="421.0" y="614" width="14" height="14" fill="#000000"/>
<rect x="463.0" y="614" width="14" height="14" fill="#000000"/>
<rect x="477.0" y="614" width="14" height="14" fill="#000000"/>
<rect x="491.0" y="614" width="14" height="14" fill="#000000"/>
<rect x="505.0" y="614" width="14" height="14" fill="#000000"/>
<rect x="519.0" y="614" width="14" height="14" fill="#000000"/>
<rect x="533.0" y="614" width="14" height="14" fill="#000000"/>
<rect x="575.0" y="614" width="14" height="14" fill="#000000"/>
<rect x="197.0" y="628" width="14" height="14" fill="#000000"/>
<rect x="281.0" y="628" width="14" height="14" fill="#000000"/>
<rect x="337.0" y="628" width="14" height="14" fill="#000000"/>
<rect x="365.0" y="628" width="14" height="14" fill="#000000"/>
<rect x="435.0" y="628" width="14" height="14" fill="#000000"/>
<rect x="463.0" y="628" width="14" height="14" fill="#000000"/>
<rect x="491.0" y="628" width="14" height="14" fill="#000000"/>
<rect x="533.0" y="628" width="14" height="14" fill="#000000"/>
<rect x="547.0" y="628" width="14" height="14" fill="#000000"/>
<rect x="561.0" y="628" width="14" height="14" fill="#000000"/>
<rect x="589.0" y="628" width="14" height="14" fill="#000000"/>
<rect x="197.0" y="642" width="14" height="14" fill="#000000"/>
<rect x="211.0" y="642" width="14" height="14" fill="#000000"/>
<rect x="225.0" y="642" width="14" height="14" fill="#000000"/>
<rect x="239.0" y="642" width="14" height="14" fill="#000000"/>
<rect x="253.0" y="642" width="14" height="14" fill="#000000"/>
<rect x="267.0" y="642" width="14" height="14" fill="#000000"/>
<rect x="281.0" y="642" width="14" height="14" fill="#000000"/>
<rect x="323.0" y="642" width="14" height="14" fill="#000000"/>
<rect x="351.0" y="642" width="14" height="14" fill="#000000"/>
<rect x="365.0" y="642" width="14" height="14" fill="#000000"/>
<rect x="379.0" y="642" width="14" height="14" fill="#000000"/>
<rect x="393.0" y="642" width="14" height="14" fill="#000000"/>
<rect x="421.0" y="642" width="14" height="14" fill="#000000"/>
<rect x="435.0" y="642" width="14" height="14" fill="#000000"/>
<rect x="449.0" y="642" width="14" height="14" fill="#000000"/>
<rect x="463.0" y="642" width="14" height="14" fill="#000000"/>
<rect x="491.0" y="642" width="14" height="14" fill="#000000"/>
<rect x="505.0" y="642" width="14" height="14" fill="#000000"/>
<rect x="533.0" y="642" width="14" height="14" fill="#000000"/>
<rect x="561.0" y="642" width="14" height="14" fill="#000000"/>

  <text x="400.0" y="745" text-anchor="middle"
        font-family="Helvetica, Arial, sans-serif"
        font-size="32" font-weight="700" fill="#000000">citycompass.pl</text>
</svg>
